<?xml version="1.0"?>
<svg version="1.0" xmlns="http://www.w3.org/2000/svg"
 width="15" height="15" viewBox="0 0 128 128">
<g transform="translate(0,128) scale(0.1,-0.1)"
fill="#000000" stroke="none">
<path d="M490 1271 c-90 -29 -165 -97 -196 -178 l-17 -43 -47 6 c-68 9 -148
-28 -187 -87 l-28 -43 0 -210 c0 -203 1 -214 27 -284 36 -101 82 -173 154
-246 74 -73 146 -118 246 -153 64 -23 89 -27 198 -27 109 0 134 4 198 27 100
35 172 80 246 153 72 73 118 145 154 246 26 71 27 81 30 338 3 251 2 268 -18
322 -25 68 -84 132 -148 161 -44 21 -64 22 -317 24 -148 1 -281 -2 -295 -6z
m556 -140 c23 -10 52 -34 65 -52 23 -33 24 -40 27 -262 2 -181 0 -240 -13
-290 -60 -237 -250 -391 -485 -391 -234 0 -425 153 -485 389 -10 40 -15 107
-15 206 0 127 2 150 18 169 22 27 65 29 92 5 16 -15 19 -35 22 -175 3 -139 5
-161 22 -179 24 -27 68 -27 92 0 17 19 19 43 24 264 5 260 5 256 60 302 31 26
81 31 305 32 204 0 235 -2 271 -18z"/>
</g>
</svg>
