<?xml version="1.0" encoding="UTF-8" standalone="no"?>
<svg
   xmlns:dc="http://purl.org/dc/elements/1.1/"
   xmlns:cc="http://creativecommons.org/ns#"
   xmlns:rdf="http://www.w3.org/1999/02/22-rdf-syntax-ns#"
   xmlns:svg="http://www.w3.org/2000/svg"
   xmlns="http://www.w3.org/2000/svg"
   xmlns:sodipodi="http://sodipodi.sourceforge.net/DTD/sodipodi-0.dtd"
   xmlns:inkscape="http://www.inkscape.org/namespaces/inkscape"
   height="20"
   viewBox="0 0 1792 1792"
   width="20"
   id="svg4136"
   version="1.1"
   inkscape:version="0.91 r13725"
   sodipodi:docname="thumbsDownSelected.svg">
  <metadata
     id="metadata4144">
    <rdf:RDF>
      <cc:Work
         rdf:about="">
        <dc:format>image/svg+xml</dc:format>
        <dc:type
           rdf:resource="http://purl.org/dc/dcmitype/StillImage" />
        <dc:title></dc:title>
      </cc:Work>
    </rdf:RDF>
  </metadata>
  <defs
     id="defs4142" />
  <sodipodi:namedview
     pagecolor="#ffffff"
     bordercolor="#666666"
     borderopacity="1"
     objecttolerance="10"
     gridtolerance="10"
     guidetolerance="10"
     inkscape:pageopacity="0"
     inkscape:pageshadow="2"
     inkscape:window-width="1920"
     inkscape:window-height="1017"
     id="namedview4140"
     showgrid="false"
     inkscape:zoom="0.47433036"
     inkscape:cx="896"
     inkscape:cy="896"
     inkscape:window-x="1912"
     inkscape:window-y="-8"
     inkscape:window-maximized="1"
     inkscape:current-layer="svg4136" />
  <path
     d="M320 576q0 26-19 45t-45 19q-27 0-45.5-19t-18.5-45q0-27 18.5-45.5t45.5-18.5q26 0 45 18.5t19 45.5zm160 512v-640q0-26-19-45t-45-19h-288q-26 0-45 19t-19 45v640q0 26 19 45t45 19h288q26 0 45-19t19-45zm1129-149q55 61 55 149-1 78-57.5 135t-134.5 57h-277q4 14 8 24t11 22 10 18q18 37 27 57t19 58.5 10 76.5q0 24-.5 39t-5 45-12 50-24 45-40 40.5-60 26-82.5 10.5q-26 0-45-19-20-20-34-50t-19.5-52-12.5-61q-9-42-13.5-60.5t-17.5-48.5-31-48q-33-33-101-120-49-64-101-121t-76-59q-25-2-43-20.5t-18-43.5v-641q0-26 19-44.5t45-19.5q35-1 158-44 77-26 120.5-39.5t121.5-29 144-15.5h129q133 2 197 78 58 69 49 181 39 37 54 94 17 61 0 117 46 61 43 137 0 32-15 76z"
     id="path4138"
     style="fill:#00c8ff;fill-opacity:1" />
</svg>
